<svg id="Layer_1" data-name="Layer 1" xmlns="http://www.w3.org/2000/svg" viewBox="0 0 16 16"><defs><style>.cls-1{fill:#e10086;}.cls-2{fill:#fdfb76;}</style></defs><rect x="4" width="1" height="1"/><rect x="4" y="1" width="1" height="1"/><rect x="4" y="2" width="1" height="1"/><rect x="4" y="3" width="1" height="1"/><rect x="4" y="4" width="1" height="1"/><rect x="4" y="5" width="1" height="1"/><rect x="4" y="6" width="1" height="1"/><rect x="4" y="8" width="1" height="1"/><rect x="5" y="8" width="1" height="1"/><rect x="6" y="8" width="1" height="1"/><rect x="7" y="8" width="1" height="1"/><rect x="8" y="8" width="1" height="1"/><rect x="9" y="8" width="1" height="1"/><rect x="10" y="8" width="1" height="1"/><rect x="11" y="8" width="1" height="1"/><rect x="12" y="8" width="1" height="1"/><rect x="4" y="7" width="1" height="1"/><rect width="1" height="1"/><rect x="1" width="1" height="1"/><rect x="2" width="1" height="1"/><rect x="3" width="1" height="1"/><rect y="1" width="1" height="1"/><rect y="2" width="1" height="1"/><rect y="3" width="1" height="1"/><rect y="4" width="1" height="1"/><rect y="5" width="1" height="1"/><rect y="6" width="1" height="1"/><rect y="8" width="1" height="1"/><rect y="7" width="1" height="1"/><rect y="9" width="1" height="1"/><rect y="10" width="1" height="1"/><rect y="12" width="1" height="1"/><rect y="11" width="1" height="1"/><rect x="1" y="12" width="1" height="1"/><rect x="2" y="12" width="1" height="1"/><rect x="3" y="12" width="1" height="1"/><rect x="4" y="12" width="1" height="1"/><rect x="5" y="12" width="1" height="1"/><rect x="6" y="12" width="1" height="1"/><rect x="7" y="12" width="1" height="1"/><rect x="8" y="12" width="1" height="1"/><rect x="9" y="12" width="1" height="1"/><rect x="10" y="12" width="1" height="1"/><rect x="11" y="12" width="1" height="1"/><rect x="12" y="9" width="1" height="1"/><rect x="12" y="10" width="1" height="1"/><rect x="12" y="12" width="1" height="1"/><rect x="12" y="11" width="1" height="1"/><rect class="cls-1" x="1" y="1" width="1" height="1"/><rect class="cls-2" x="4" y="10" width="1" height="1"/><rect class="cls-1" x="2" y="1" width="1" height="1"/><rect class="cls-1" x="3" y="1" width="1" height="1"/><rect class="cls-1" x="1" y="2" width="1" height="1"/><rect class="cls-1" x="2" y="2" width="1" height="1"/><rect class="cls-1" x="3" y="2" width="1" height="1"/><rect class="cls-1" x="1" y="3" width="1" height="1"/><rect class="cls-1" x="2" y="3" width="1" height="1"/><rect class="cls-1" x="3" y="3" width="1" height="1"/><rect class="cls-1" x="1" y="4" width="1" height="1"/><rect class="cls-1" x="2" y="4" width="1" height="1"/><rect class="cls-1" x="3" y="4" width="1" height="1"/><rect class="cls-1" x="1" y="5" width="1" height="1"/><rect class="cls-1" x="2" y="5" width="1" height="1"/><rect class="cls-1" x="3" y="5" width="1" height="1"/><rect class="cls-1" x="1" y="6" width="1" height="1"/><rect class="cls-1" x="2" y="6" width="1" height="1"/><rect class="cls-1" x="3" y="6" width="1" height="1"/><rect class="cls-1" x="1" y="7" width="1" height="1"/><rect class="cls-1" x="2" y="7" width="1" height="1"/><rect class="cls-1" x="3" y="7" width="1" height="1"/><rect class="cls-1" x="1" y="8" width="1" height="1"/><rect class="cls-1" x="2" y="8" width="1" height="1"/><rect class="cls-1" x="3" y="8" width="1" height="1"/><rect class="cls-1" x="2" y="9" width="1" height="1"/><rect class="cls-1" x="3" y="9" width="1" height="1"/><rect class="cls-1" x="1" y="10" width="1" height="1"/><rect class="cls-1" x="2" y="10" width="1" height="1"/><rect class="cls-1" x="1" y="11" width="1" height="1"/><rect class="cls-2" x="4" y="9" width="1" height="1"/><rect class="cls-2" x="4" y="11" width="1" height="1"/><rect class="cls-2" x="5" y="10" width="1" height="1"/><rect class="cls-2" x="5" y="9" width="1" height="1"/><rect class="cls-2" x="5" y="11" width="1" height="1"/><rect class="cls-2" x="6" y="10" width="1" height="1"/><rect class="cls-2" x="6" y="9" width="1" height="1"/><rect class="cls-2" x="6" y="11" width="1" height="1"/><rect class="cls-2" x="7" y="10" width="1" height="1"/><rect class="cls-2" x="7" y="9" width="1" height="1"/><rect class="cls-2" x="7" y="11" width="1" height="1"/><rect class="cls-2" x="8" y="10" width="1" height="1"/><rect class="cls-2" x="8" y="9" width="1" height="1"/><rect class="cls-2" x="8" y="11" width="1" height="1"/><rect class="cls-2" x="9" y="10" width="1" height="1"/><rect class="cls-2" x="9" y="9" width="1" height="1"/><rect class="cls-2" x="9" y="11" width="1" height="1"/><rect class="cls-2" x="10" y="10" width="1" height="1"/><rect class="cls-2" x="10" y="9" width="1" height="1"/><rect class="cls-2" x="10" y="11" width="1" height="1"/><rect class="cls-2" x="11" y="10" width="1" height="1"/><rect class="cls-2" x="11" y="9" width="1" height="1"/><rect class="cls-2" x="11" y="11" width="1" height="1"/><rect class="cls-2" x="3" y="10" width="1" height="1"/><rect class="cls-2" x="2" y="11" width="1" height="1"/><rect class="cls-2" x="1" y="9" width="1" height="1"/><rect class="cls-1" x="3" y="11" width="1" height="1"/></svg>