<svg id="Layer_1" data-name="Layer 1" xmlns="http://www.w3.org/2000/svg" viewBox="0 0 2368.69 1320.21"><defs><style>.cls-1,.cls-2,.cls-3{fill:none;stroke-miterlimit:10;stroke-width:3px;}.cls-1{stroke:#f8e924;}.cls-2{stroke:#38cd2c;}.cls-3{stroke:#54276f;}.cls-4{fill:#f8e924;}.cls-5{fill:#54276f;}.cls-6{fill:#d1439e;}</style></defs><polygon class="cls-1" points="419.6 399.63 398.07 395.79 382.7 411.35 379.7 389.69 360.16 379.88 379.83 370.33 383.13 348.71 398.28 364.47 419.86 360.92 409.56 380.21 419.6 399.63"/><polygon class="cls-2" points="2183.53 299.93 2162 296.09 2146.63 311.64 2143.63 289.98 2124.09 280.17 2143.76 270.63 2147.05 249.01 2162.21 264.77 2183.79 261.22 2173.48 280.5 2183.53 299.93"/><circle class="cls-3" cx="482.07" cy="166.04" r="33.49"/><path class="cls-1" d="M551.33,1035.68A50,50,0,0,1,503,1118.13a50,50,0,1,0,48.35-82.45Z" transform="translate(33.24 57.08)"/><path class="cls-4" d="M2061.24,1004.66a50,50,0,0,0,48.35,82.46,50,50,0,1,1-48.35-82.46Z" transform="translate(33.24 57.08)"/><circle class="cls-5" cx="1874.72" cy="196.62" r="33.49"/><path class="cls-6" d="M240.5,1043.4a99.07,99.07,0,1,1,185.59-49.56c1.94-1.68,3.82-3.44,5.82-5a105.09,105.09,0,1,0-198.53,54A49.66,49.66,0,0,0,240.5,1043.4Z" transform="translate(33.24 57.08)"/><path class="cls-6" d="M424.78,1011.32a99,99,0,0,1-175.1,45.7c-2.36.21-4.72.43-7.09.62a105,105,0,0,0,188.76-49.9C429.17,1009,427,1010.16,424.78,1011.32Z" transform="translate(33.24 57.08)"/><path class="cls-4" d="M531.55,933.57c-4-15-40.12-15.5-69.7-13.32-16.58,1.22-35.13,3.57-55,6.9A20.88,20.88,0,0,1,409,929.3a17.85,17.85,0,0,1,1.63,2.29c18.57-3,36-5.21,51.56-6.35,56.35-4.16,63.62,6.31,64.51,9.62,2.07,7.74-12.41,25.41-49.44,47.43-38.14,22.68-87.41,42.75-138.74,56.5s-104,21-148.4,20.44c-43.08-.55-64.45-8.62-66.53-16.36-.88-3.31.18-16,51.05-40.59,14.34-6.92,30.8-13.87,48.78-20.63.14-.44.28-.87.43-1.29a12.4,12.4,0,0,1,0-4.21c-19,7.08-36.32,14.36-51.37,21.63-26.71,12.91-57.71,31.43-53.71,46.39,6.61,24.64,109.91,29.23,221.06-.55S538.15,958.21,531.55,933.57Z" transform="translate(33.24 57.08)"/><path class="cls-4" d="M480.46,947.75c-2.45-9.14-33.95-8.66-52.51-7.56-3.11.19-6.77.44-10.9.8,1,1.58,1.95,3.21,3,4.77,2.67-.21,5.12-.39,7.28-.52,34.32-2.12,47.35,1.64,48.32,3.81.47,2.86-10.54,15.92-38.24,33.28-17.66,11.07-54.85,31.67-105.47,45.23-47.81,12.82-84.08,13.23-106.09,11.32-27-2.34-40.22-9-41-11.92-.62-2.29,6.12-11.38,30.86-24.85,1.89-1,3.84-2.05,5.84-3.07-.06-1.88-.06-3.76,0-5.62-2.84,1.43-5.6,2.86-8.25,4.3-10.88,5.93-35.92,20.76-33.3,30.54,1.91,7.14,20.15,13.42,45.39,15.61,22.4,1.94,59.3,1.52,107.82-11.48,51.55-13.81,89.37-34.83,107.32-46.13C460.37,973.78,482.72,956.2,480.46,947.75Z" transform="translate(33.24 57.08)"/><path class="cls-6" d="M2072.28,472.25a99.08,99.08,0,1,0-185.6-49.57c-1.94-1.68-3.82-3.44-5.82-5a105.09,105.09,0,1,1,198.54,54A49.9,49.9,0,0,1,2072.28,472.25Z" transform="translate(33.24 57.08)"/><path class="cls-6" d="M1888,440.17a99,99,0,0,0,175.1,45.69c2.36.21,4.73.44,7.09.62a105,105,0,0,1-188.76-49.9C1883.6,437.79,1885.78,439,1888,440.17Z" transform="translate(33.24 57.08)"/><path class="cls-4" d="M1781.22,362.41c4-15,40.12-15.5,69.7-13.32,16.58,1.22,35.14,3.57,55,6.91a18.89,18.89,0,0,0-2.15,2.14,16.48,16.48,0,0,0-1.64,2.3c-18.57-3.05-36-5.21-51.56-6.36-56.35-4.15-63.62,6.32-64.51,9.62-2.07,7.75,12.41,25.41,49.44,47.43,38.14,22.69,87.41,42.75,138.74,56.51s104,21,148.4,20.43c43.08-.55,64.45-8.61,66.53-16.35.88-3.31-.18-16-51-40.59-14.34-6.93-30.8-13.88-48.78-20.64-.14-.43-.28-.86-.43-1.29a12.09,12.09,0,0,0,0-4.2c19,7.07,36.33,14.36,51.37,21.63C2167,439.53,2198,458.05,2194,473c-6.61,24.65-109.91,29.24-221.06-.55S1774.62,387.06,1781.22,362.41Z" transform="translate(33.24 57.08)"/><path class="cls-4" d="M1832.32,376.59c2.44-9.13,33.94-8.65,52.5-7.56,3.11.19,6.77.45,10.9.81-1,1.57-2,3.21-3,4.77-2.67-.22-5.12-.39-7.27-.53-34.32-2.12-47.36,1.65-48.32,3.81-.48,2.86,10.53,15.92,38.23,33.28,17.66,11.08,54.85,31.68,105.47,45.24,47.81,12.81,84.08,13.23,106.09,11.32,27-2.34,40.22-9,41-11.93.62-2.29-6.12-11.38-30.86-24.84q-2.84-1.54-5.84-3.08c.06-1.88.06-3.76,0-5.61q4.27,2.13,8.25,4.3c10.89,5.92,35.92,20.76,33.3,30.53-1.91,7.15-20.15,13.42-45.39,15.61-22.4,1.94-59.3,1.53-107.82-11.47-51.55-13.82-89.36-34.84-107.32-46.14C1852.4,402.62,1830.05,385.05,1832.32,376.59Z" transform="translate(33.24 57.08)"/><path class="cls-6" d="M557.25,443.63a99.08,99.08,0,1,1,136-135.72c.83-2.42,1.58-4.89,2.52-7.27A105.09,105.09,0,1,0,550.79,446.69,48.85,48.85,0,0,0,557.25,443.63Z" transform="translate(33.24 57.08)"/><path class="cls-6" d="M700.81,323.71A99,99,0,0,1,572,450.83c-1.94,1.37-3.88,2.74-5.83,4.08A105,105,0,0,0,704.69,317.32C703.42,319.46,702.13,321.6,700.81,323.71Z" transform="translate(33.24 57.08)"/><path class="cls-4" d="M754.39,203c-10.95-10.94-42.49,6.64-67,23.32-13.74,9.35-28.63,20.66-44.16,33.47a19.93,19.93,0,0,1,2.94.79,16.63,16.63,0,0,1,2.56,1.17c14.56-11.93,28.54-22.5,41.48-31.29,46.72-31.77,58.25-26.34,60.67-23.92,5.67,5.67,2,28.21-19.09,65.79C710.06,311,677.43,353,639.85,390.61s-79.58,70.22-118.3,91.91c-37.58,21.06-60.12,24.76-65.79,19.09-2.42-2.42-7.85-13.95,23.92-60.67,8.95-13.17,19.73-27.41,31.92-42.26-.1-.45-.19-.89-.27-1.33a11.92,11.92,0,0,1-2.11-3.64c-12.9,15.62-24.28,30.6-33.68,44.42-16.68,24.53-34.27,56.07-23.32,67,18,18,109.8-29.63,191.17-111S772.43,221,754.39,203Z" transform="translate(33.24 57.08)"/><path class="cls-4" d="M717.23,240.82c-6.69-6.69-33.73,9.47-49.25,19.7-2.6,1.72-5.64,3.77-9,6.15,1.67.85,3.3,1.8,5,2.63,2.2-1.52,4.23-2.89,6-4.08,28.66-19,41.83-22.26,43.75-20.87,1.84,2.24-1.16,19.06-16.47,47.94-9.76,18.42-31.67,54.86-68.72,91.91-35,35-66.21,53.5-86.22,62.85-24.57,11.48-39.35,12.29-41.47,10.17-1.67-1.68-.38-12.91,14.31-37,1.12-1.83,2.3-3.7,3.52-5.58q-1.5-2.4-2.79-4.87-2.62,4-5,7.84c-6.46,10.58-20.72,35.94-13.57,43.1,5.23,5.23,24.17,1.54,47.11-9.18,20.38-9.52,52.12-28.32,87.64-63.84,37.74-37.74,60-74.85,69.88-93.62C712.85,273.4,723.42,247,717.23,240.82Z" transform="translate(33.24 57.08)"/><path class="cls-6" d="M1553.49,1175a99.08,99.08,0,1,1,96.19-166.29c.18-2.56.27-5.13.56-7.67a105.09,105.09,0,1,0-102.19,178.58A49.92,49.92,0,0,0,1553.49,1175Z" transform="translate(33.24 57.08)"/><path class="cls-6" d="M1661.12,1022a99,99,0,0,1-91.51,156.12c-1.52,1.83-3,3.66-4.57,5.46a105,105,0,0,0,98.18-168.76C1662.54,1017.25,1661.85,1019.65,1661.12,1022Z" transform="translate(33.24 57.08)"/><path class="cls-4" d="M1681.63,891.55c-13.41-7.74-39.33,17.41-58.71,39.87-10.85,12.58-22.31,27.37-34,43.76a20.57,20.57,0,0,1,3,0,16.17,16.17,0,0,1,2.77.47c11-15.29,21.75-29.12,32-41,36.91-42.78,49.45-40.52,52.42-38.81,6.94,4,9.19,26.74-1.42,68.5-10.93,43-31.58,92-58.15,138.05s-58.7,88.42-90.49,119.39c-30.85,30.07-51.66,39.48-58.6,35.48-3-1.72-11.2-11.45,7.39-64.8,5.24-15,12-31.59,19.9-49.09-.21-.4-.41-.8-.61-1.21a12.36,12.36,0,0,1-3-3c-8.41,18.43-15.53,35.84-21,51.62-9.76,28-18.58,63-5.17,70.78,22.09,12.76,98.38-57,155.92-156.7S1703.73,904.31,1681.63,891.55Z" transform="translate(33.24 57.08)"/><path class="cls-4" d="M1655.53,937.71c-8.19-4.73-30.13,17.88-42.47,31.78-2.07,2.33-4.47,5.1-7.14,8.28,1.83.39,3.65.89,5.48,1.26,1.73-2,3.34-3.89,4.77-5.51,22.77-25.77,34.65-32.33,36.86-31.48,2.36,1.69,3.81,18.71-3.5,50.57-4.66,20.32-16.39,61.19-42.59,106.56-24.75,42.88-50.11,68.82-67,83-20.75,17.44-34.82,22-37.41,20.55-2.06-1.18-3.72-12.37,4.25-39.39.61-2.06,1.26-4.17,2-6.3q-2.06-1.93-4-4c-1,3-1.94,6-2.79,8.88-3.51,11.88-10.72,40.08-2,45.13,6.41,3.71,23.74-4.76,43.13-21,17.22-14.47,43-40.85,68.13-84.36,26.68-46.21,38.56-87.82,43.26-108.51C1659.73,970.32,1663.11,942.09,1655.53,937.71Z" transform="translate(33.24 57.08)"/><circle class="cls-5" cx="2055.99" cy="796.19" r="33.49"/><polygon class="cls-2" points="1899.33 1193.59 1877.8 1189.75 1862.43 1205.31 1859.43 1183.65 1839.88 1173.84 1859.56 1164.29 1862.85 1142.67 1878.01 1158.43 1899.59 1154.88 1889.28 1174.17 1899.33 1193.59"/><circle class="cls-3" cx="1897.83" cy="994.15" r="33.49"/><path class="cls-1" d="M165.3,124.13a50,50,0,0,0,48.34,82.45,50,50,0,1,1-48.34-82.45Z" transform="translate(33.24 57.08)"/><polygon class="cls-2" points="211.12 508.47 189.59 504.63 174.22 520.19 171.22 498.53 151.67 488.72 171.35 479.17 174.64 457.55 189.8 473.31 211.37 469.76 201.07 489.05 211.12 508.47"/><circle class="cls-5" cx="360.16" cy="593.36" r="33.49"/><polygon class="cls-1" points="2082.17 152.16 2060.64 148.31 2045.27 163.87 2042.27 142.21 2022.73 132.4 2042.4 122.85 2045.69 101.23 2060.85 116.99 2082.43 113.44 2072.13 132.73 2082.17 152.16"/><circle class="cls-3" cx="160.04" cy="899.27" r="33.49"/><circle class="cls-3" cx="419.86" cy="838.82" r="33.49"/><circle class="cls-3" cx="1789.22" cy="737.3" r="33.49"/><circle class="cls-3" cx="613.13" cy="670.32" r="33.49"/><circle class="cls-3" cx="2287.38" cy="117.77" r="33.49"/><circle class="cls-3" cx="2052.58" cy="1275.32" r="33.49"/><circle class="cls-3" cx="2227.58" cy="947.14" r="33.49"/><circle class="cls-3" cx="672.89" cy="1265.02" r="33.49"/><circle class="cls-3" cx="453.35" cy="1231.54" r="33.49"/><circle class="cls-3" cx="54.25" cy="101.23" r="33.49"/><path class="cls-1" d="M1770.84,414.32a50,50,0,0,1-48.35,82.45,50,50,0,1,0,48.35-82.45Z" transform="translate(33.24 57.08)"/><path class="cls-1" d="M2282.7,623.39a50,50,0,0,0,48.35,82.45,50,50,0,1,1-48.35-82.45Z" transform="translate(33.24 57.08)"/><path class="cls-1" d="M575-54.5A49.82,49.82,0,0,0,561.8-20.7a50,50,0,0,0,50,50A50.22,50.22,0,0,0,623.31,28a49.85,49.85,0,0,1-36.84,16.2,50,50,0,0,1-50-50A50,50,0,0,1,575-54.5Z" transform="translate(33.24 57.08)"/><path class="cls-1" d="M2282.7,623.39a50,50,0,0,0,48.35,82.45,50,50,0,1,1-48.35-82.45Z" transform="translate(33.24 57.08)"/><path class="cls-4" d="M98.24,672.71A50,50,0,0,1,49.9,755.17a50,50,0,1,0,48.34-82.46Z" transform="translate(33.24 57.08)"/><polygon class="cls-2" points="62.83 1051.37 41.3 1047.53 25.93 1063.08 22.93 1041.42 3.39 1031.61 23.06 1022.06 26.35 1000.45 41.51 1016.21 63.09 1012.65 52.78 1031.94 62.83 1051.37"/><polygon class="cls-2" points="189.63 1215.96 168.11 1212.12 152.74 1227.67 149.74 1206.01 130.19 1196.2 149.87 1186.65 153.16 1165.03 168.32 1180.8 189.9 1177.24 179.59 1196.53 189.63 1215.96"/><polygon class="cls-2" points="92.68 368.31 71.15 364.47 55.78 380.03 52.78 358.37 33.24 348.56 52.91 339.01 56.2 317.39 71.36 333.15 92.94 329.6 82.64 348.89 92.68 368.31"/><polygon class="cls-2" points="1668.26 637.09 1646.73 633.25 1631.36 648.81 1628.36 627.14 1608.82 617.33 1628.49 607.79 1631.78 586.17 1646.94 601.93 1668.52 598.38 1658.21 617.66 1668.26 637.09"/><polygon class="cls-2" points="1722.79 137.38 1701.26 133.53 1685.89 149.09 1682.89 127.43 1663.35 117.62 1683.02 108.07 1686.31 86.45 1701.47 102.22 1723.05 98.66 1712.74 117.95 1722.79 137.38"/><polygon class="cls-2" points="2038.63 694.76 2017.11 690.92 2001.74 706.48 1998.74 684.82 1979.19 675 1998.87 665.46 2002.16 643.84 2017.32 659.6 2038.89 656.05 2028.59 675.34 2038.63 694.76"/><polygon class="cls-2" points="211.12 508.47 189.59 504.63 174.22 520.19 171.22 498.53 151.67 488.72 171.35 479.17 174.64 457.55 189.8 473.31 211.37 469.76 201.07 489.05 211.12 508.47"/><polygon class="cls-2" points="2316.97 399.63 2295.44 395.79 2280.07 411.35 2277.07 389.69 2257.53 379.88 2277.2 370.33 2280.49 348.71 2295.65 364.47 2317.23 360.92 2306.93 380.21 2316.97 399.63"/><polygon class="cls-2" points="2362.83 1081.35 2341.3 1077.5 2325.93 1093.06 2322.93 1071.4 2303.39 1061.59 2323.06 1052.04 2326.35 1030.42 2341.51 1046.18 2363.09 1042.63 2352.78 1061.92 2362.83 1081.35"/><polygon class="cls-2" points="2283.48 1263.61 2261.95 1259.76 2246.59 1275.32 2243.59 1253.66 2224.04 1243.85 2243.72 1234.3 2247.01 1212.68 2262.16 1228.44 2283.74 1224.89 2273.44 1244.18 2283.48 1263.61"/><polygon class="cls-2" points="1742.92 330.2 1721.39 326.35 1706.02 341.91 1703.03 320.25 1683.48 310.44 1703.15 300.89 1706.44 279.27 1721.6 295.04 1743.18 291.48 1732.88 310.77 1742.92 330.2"/></svg>